<svg width="351" height="195" fill="none" xmlns="http://www.w3.org/2000/svg"><g clip-path="url(#clip0_23:648)"><path d="M55.005.797H47.09L14.641 90.92c-3.957 11.166-7.122 15.552-12.267 15.552H0v3.988h29.283v-3.988h-3.166c-7.914 0-9.101-3.988-9.101-7.576 0-1.994.396-3.988 1.583-6.38l9.892-27.117H62.92l15.829 41.073h-9.102v3.988h35.219v-3.988h-9.102L55.004.797zM29.678 61.012l15.433-42.27 16.224 42.27H29.679zm106.844 1.994c-.791-.398-1.583-.398-2.374-.797-5.54-1.994-14.246-6.78-14.246-15.951 0-8.773 5.54-13.559 15.829-13.559 11.871 0 19.39 7.178 22.16 21.933l.396 1.595h3.957V28.313h-3.957v1.994c0 1.595-.396 2.393-2.375 2.393-.791 0-2.77-.4-7.123-1.994-3.957-1.596-8.31-2.393-12.663-2.393-17.411 0-28.491 9.172-28.491 23.926-.396 15.553 15.037 20.737 26.909 25.123.791.399 1.978.798 2.77.798 6.727 2.392 14.245 7.178 14.245 15.552 0 8.374-7.122 13.957-17.411 13.957-5.936 0-11.476-1.595-15.433-4.387-2.77-1.994-3.957-3.19-4.749-4.386.792.399 1.583.399 2.375.399 5.54 0 9.497-3.988 9.497-9.571s-4.353-9.57-9.893-9.57c-5.54 0-9.497 4.386-9.497 10.368 0 5.582 2.77 10.368 8.31 14.754 5.54 3.988 12.267 6.381 20.181 6.381 7.915 0 15.038-2.393 20.578-6.78 5.54-4.785 8.705-10.368 8.705-17.546-.395-15.153-15.433-20.337-27.7-24.325z" fill="#fff"/><path d="M185.195 19.141c5.144 0 9.101-4.386 9.101-9.57 0-5.583-3.957-9.571-9.101-9.571-5.144 0-9.101 4.386-9.101 9.57 0 5.583 3.957 9.571 9.101 9.571z" fill="#BC1F4B"/><path d="M275.023 96.104V97.7c-.396 3.19-2.375 5.582-5.145 5.582-2.77 0-4.353-1.994-4.353-5.184v-38.68c0-19.142-11.475-31.105-29.283-31.105-7.914 0-14.245 2.393-19.39 6.78-5.144 4.386-7.518 9.57-7.518 15.152 0 5.982 3.957 10.369 9.497 10.369s9.893-3.988 9.893-9.571-3.957-9.57-9.497-9.57c-1.188 0-1.979.398-2.77.398.791-1.196 2.374-2.791 4.352-4.785 3.562-2.791 7.915-4.386 13.059-4.386 12.267 0 17.807 4.785 17.807 14.754 0 13.957-11.871 17.546-23.743 21.534-1.582.399-2.77.797-4.352 1.196-11.081 3.59-17.016 11.565-17.016 21.534 0 11.963 9.101 20.337 21.764 20.337 5.936 0 11.08-1.595 15.433-4.785 2.77-1.994 5.144-3.988 7.123-6.38 2.374 9.171 8.31 11.165 13.454 11.165 8.706 0 13.85-7.178 14.246-13.957v-1.994h-3.561zm-53.026-5.582c0-11.565 7.518-16.35 15.433-19.94 3.561-1.993 8.31-4.784 11.871-8.373v27.914c0 7.576-6.331 13.558-14.641 13.558-7.519.399-12.663-4.785-12.663-13.16z" fill="#fff"/><path d="M162.244 187.423c-1.187 3.589-.792 4.786-.792 5.982 0 .797.396 1.196.396 1.595 0 .798-5.936-1.595-7.123-5.583-5.935.798-19.785-1.994-22.16-9.969-3.166-10.368 15.829-23.927 40.363-31.902 2.77-5.184 5.936-11.166 10.289-18.344 3.957-7.177 7.123-12.76 7.123-15.552 0-1.196-.396-1.595-.792-1.595-.395 0 .396-.399.792-.399.395 0 1.583.399 2.374.798 2.77 1.994 5.144 4.386 5.144 5.583 0 .797-3.165 6.38-7.914 14.356l-7.123 11.963c8.706-1.994 17.412-3.19 26.513-3.988 2.77-5.583 4.353-11.564 3.957-17.147-1.187-14.356-17.016-16.35-26.908-15.154-20.182 1.994-37.989 18.743-37.198 24.724 0 1.197 1.583 2.792 8.706 3.589.396 0 .791.399 0 .798-4.353.399-7.123 0-9.101-.399-1.583-.399-4.749-1.994-5.145-5.583-1.187-9.969 17.016-25.92 40.759-27.914 14.641-1.196 32.449 5.982 34.823 25.123.396 3.988 0 7.975-1.583 11.963 3.957 0 7.519 0 9.497.399 1.187.399 1.583.399-.395.399-3.166 0-6.332 0-9.498.398-7.122 19.939-32.448 39.479-55.004 45.859zm-5.936-5.184c1.979-5.583 5.54-12.362 7.914-16.748.792-1.994 2.77-5.982 6.332-12.362-19.786 7.975-36.406 23.129-32.053 29.509 1.979 2.791 6.727 2.393 8.31 1.994 3.561-.798 5.54-1.196 9.497-2.393zm24.535-33.098c-5.54 9.571-10.685 19.141-15.038 29.509 17.808-7.975 34.823-21.135 43.133-35.889-9.497 1.196-18.203 3.19-28.095 6.38z" fill="#BC1F4B"/><path d="M244.157 121.626c3.957-.798 9.102 3.19 9.497 6.38.396 3.19-13.85 17.147-25.721 19.141-1.979 3.988-2.375 7.178-2.375 8.773 0 1.197.792 1.197 1.979 1.197 1.583-.399 3.562-1.197 4.353-1.994 6.331-4.387 16.224-11.963 24.534-21.933.396-.398 1.188 0 1.188.399-7.519 11.166-21.765 26.319-28.096 27.515-3.166.399-10.289-3.987-10.685-7.178-.395-2.392.396-5.582 1.979-8.773 2.77-5.582 7.519-11.963 12.267-16.349 3.957-3.988 7.914-6.779 11.08-7.178zm-14.641 23.129c4.748-1.994 10.288-7.178 14.245-11.166 3.958-3.988 5.54-8.773 5.145-9.172-5.145 1.197-14.246 11.565-19.39 20.338z" fill="#BC1F4B"/><path d="M262.756 136.779c-3.562 6.38-5.145 11.165-5.145 13.159 0 1.197.792 1.595 1.979 1.595 1.583-.398 3.957-1.595 4.748-1.993 6.332-4.387 15.433-12.362 22.556-21.135 0-.399 1.187 0 .792.398-6.727 10.767-20.578 25.921-26.909 26.718-2.374.399-9.893-3.589-10.289-6.779-.791-6.38 5.54-17.147 13.059-24.325 4.353-4.387 8.31-6.779 11.872-7.976h.791c3.561-.398 7.914 1.596 8.31 4.786.396 2.392-4.353 7.576-6.331 8.374 0 0-.396 0 0-.399 1.187-1.994 3.561-7.975 3.165-9.57 0-.399-.395-.798-.791-.399-5.144.797-13.059 9.172-17.807 17.546z" fill="#BC1F4B"/><path d="M298.37 116.841c1.583-1.994 5.144-5.184 7.914-5.583 5.54-.798 9.893 2.791 11.08 7.178 4.749-.399 9.102-1.595 9.893-1.595.792-.399 1.583 0 0 1.196-1.187.399-5.144 1.994-9.893 2.791.396 7.178-11.871 27.516-22.951 29.111-6.331 1.196-12.267-1.196-13.059-6.779-1.187-8.375 9.102-22.73 17.016-26.319zm-8.706 30.705c5.54-.797 17.412-15.552 20.973-25.92-2.77.399-5.54 0-7.518-.798-9.102 4.786-16.225 19.939-15.433 24.724 0 1.595.396 2.393 1.978 1.994zm18.599-34.294c-1.979.797-3.166 2.392-3.166 3.589 0 1.595 2.375 2.392 6.332 1.994.395-1.197.395-1.994 0-3.191-.396-1.994-1.187-3.19-3.166-2.392z" fill="#BC1F4B"/><path d="M322.113 139.969c-.792 2.393-1.187 3.988-.792 4.387.396.399 0 .797-.791.797-.792 0-6.332-3.19-5.936-5.184.396-1.196.792-2.791 1.583-5.184l2.77-5.583c1.979-4.386 5.54-11.963 7.123-14.754 1.187-2.792 1.583-5.583.396-5.982 0 0 1.583-.399 3.165.399 3.166 1.595 4.353 3.589 4.749 4.785 0 .798-2.374 5.184-4.749 9.97 1.188-1.994 2.77-4.387 4.353-6.381 3.166-3.987 9.893-11.963 12.663-13.159 1.187-.399 3.957 2.791 4.353 5.981 0 .798 0 3.589-.791 4.387 0-.798-.396-1.196-.792-1.994-.791-.798-1.978-1.196-3.957-.798-3.957 1.197-7.519 3.191-11.871 8.375-5.54 7.178-9.498 14.356-11.476 19.938z" fill="#BC1F4B"/><path d="M178.072 99.694c4.748-.798 10.288-1.197 15.037-.4V29.909h-24.534v3.988h9.497v65.797z" fill="#fff"/></g><defs><clipPath id="clip0_23:648"><path fill="#fff" d="M0 0h351v195H0z"/></clipPath></defs></svg>