<svg width="34" height="34" fill="none" xmlns="http://www.w3.org/2000/svg"><path d="M25.644 28.71c.057-.16.11-.325.159-.493l.354-1.216.896.896 1.185 1.184.421-.421c1.518-1.518 2.112-3.512 1.682-5.841h0a9.09 9.09 0 00-.109-.506l-.301-1.23 1.224.327 1.618.434.154-.576c.555-2.073.073-4.097-1.464-5.9L21.462 33.653c2.248-.603 3.9-2.133 4.793-4.433l-.262-.262.091-.091-.44-.156zm0 0c-.792 2.232-2.304 3.662-4.376 4.217 0 0 0 0 0 0m4.376-4.217l.44.156.439-.439.72.21c-.038.13-.079.26-.121.389l.585.585-6.44 3.316m0 0l-.575.154-.434-1.618-.328-1.224-.915.877c-.126.12-.254.236-.384.347-1.802 1.537-3.826 2.02-5.899 1.464l-.576-.154.433-1.617.328-1.223-1.23.3c-1.067.262-2.334.37-3.612.028-1.023-.274-1.941-.808-2.735-1.601 0 0 0 0 0 0s0 0 0 0l-.421-.422 1.184-1.184.897-.897-1.218-.354c-1.829-.532-3.96-1.74-4.71-4.535l-.153-.576 1.618-.434 1.224-.328-.877-.915a8.978 8.978 0 01-.347-.384h0C1 16.83.517 14.805 1.073 12.732l.154-.576 1.618.434 1.224.328-.301-1.23a8.993 8.993 0 01-.109-.507h0c-.43-2.329.164-4.323 1.682-5.84l.421-.422 1.185 1.184.896.896.354-1.216c.049-.168.102-.332.159-.493m12.912 27.637L31.463 15.37a8.956 8.956 0 00-.347-.384l-.877-.915 1.224-.328 1.618-.434-.154-.576c-.749-2.795-2.88-4.003-4.71-4.535L27 7.843l.897-.896 1.184-1.185-.421-.421s0 0 0 0c-.794-.794-1.712-1.328-2.735-1.602-1.278-.343-2.545-.234-3.612.027l-1.23.301.328-1.223.433-1.617-.576-.154C19.195.518 17.17 1 15.368 2.537h0a8.76 8.76 0 00-.383.347l-.915.877-.328-1.224-.434-1.618-.576.154c-2.072.555-3.584 1.985-4.376 4.217m0 0l-.44-.156.44.156zm-.1 9.367c1.293-4.821 6.265-7.692 11.087-6.4 4.821 1.292 7.692 6.264 6.4 11.086-1.292 4.821-6.264 7.692-11.086 6.4-4.821-1.292-7.692-6.264-6.4-11.086z" stroke="#BC1D4A" stroke-width="1.5"/></svg>